<svg width="88" height="48" viewBox="0 0 88 48" fill="none" xmlns="http://www.w3.org/2000/svg">
<rect width="87.5716" height="47.8832" rx="15.9221" fill="#17696E"/>
<path d="M25.2181 29.9414V19.4965H26.5397V28.8109H31.1093V29.9414H25.2181ZM35.115 30.1325C34.4675 30.1325 33.9261 29.9414 33.4909 29.5593C33.0663 29.1665 32.854 28.6252 32.854 27.9352C32.854 27.086 33.2309 26.4385 33.9845 25.9927C34.7488 25.5363 35.9535 25.2178 37.5988 25.0374C37.5988 24.7083 37.5511 24.3952 37.4555 24.098C37.3706 23.8008 37.2114 23.562 36.9779 23.3815C36.755 23.1904 36.4312 23.0949 36.0066 23.0949C35.5608 23.0949 35.1415 23.1798 34.7488 23.3497C34.356 23.5195 34.0057 23.7106 33.6979 23.9229L33.1884 23.0153C33.5493 22.7818 33.9898 22.5589 34.5099 22.3466C35.0407 22.1237 35.6139 22.0122 36.2295 22.0122C37.1742 22.0122 37.8589 22.3041 38.2835 22.8879C38.7081 23.4611 38.9204 24.2307 38.9204 25.1966V29.9414H37.8377L37.7262 29.0179H37.6784C37.3175 29.3151 36.9195 29.5752 36.4843 29.7981C36.0597 30.021 35.6033 30.1325 35.115 30.1325ZM35.4971 29.0816C35.8686 29.0816 36.2189 28.9914 36.548 28.8109C36.877 28.6305 37.2273 28.3757 37.5988 28.0467V25.8972C36.3144 26.0564 35.4122 26.2952 34.8921 26.6137C34.3826 26.9321 34.1278 27.3408 34.1278 27.8397C34.1278 28.2749 34.2605 28.5933 34.5259 28.795C34.7912 28.9861 35.115 29.0816 35.4971 29.0816ZM45.2758 30.1325C44.9149 30.1325 44.538 30.0476 44.1453 29.8777C43.7632 29.6973 43.4023 29.4531 43.0626 29.1453H43.0148L42.9034 29.9414H41.8525V18.6049H43.1581V21.6938L43.1263 23.0949C43.4766 22.7871 43.8587 22.5323 44.2727 22.3306C44.6973 22.1183 45.1219 22.0122 45.5464 22.0122C46.5548 22.0122 47.3191 22.3678 47.8392 23.079C48.3593 23.7902 48.6194 24.7455 48.6194 25.945C48.6194 26.826 48.4602 27.5796 48.1417 28.2059C47.8339 28.8322 47.4252 29.3098 46.9157 29.6389C46.4168 29.9679 45.8702 30.1325 45.2758 30.1325ZM45.0529 29.0338C45.6897 29.0338 46.2152 28.7632 46.6291 28.2218C47.0537 27.6699 47.266 26.9162 47.266 25.9609C47.266 25.1117 47.1068 24.4271 46.7884 23.9069C46.4805 23.3762 45.9604 23.1108 45.228 23.1108C44.8989 23.1108 44.5646 23.201 44.2249 23.3815C43.8852 23.562 43.5296 23.822 43.1581 24.1617V28.2218C43.4978 28.519 43.8322 28.7313 44.1612 28.8587C44.5009 28.9755 44.7981 29.0338 45.0529 29.0338ZM54.2874 30.1325C53.5975 30.1325 52.9712 29.9733 52.4086 29.6548C51.846 29.3258 51.4002 28.8587 51.0712 28.2537C50.7421 27.6486 50.5776 26.9268 50.5776 26.0883C50.5776 25.2391 50.7421 24.512 51.0712 23.9069C51.4108 23.3019 51.846 22.8348 52.3768 22.5058C52.9075 22.1767 53.4648 22.0122 54.0486 22.0122C55.0358 22.0122 55.7947 22.3413 56.3255 22.9994C56.8668 23.6575 57.1375 24.5385 57.1375 25.6424C57.1375 25.7804 57.1322 25.9184 57.1216 26.0564C57.1216 26.1838 57.1109 26.2952 57.0897 26.3908H51.8673C51.9203 27.2081 52.1751 27.8609 52.6315 28.3492C53.0986 28.8375 53.7036 29.0816 54.4466 29.0816C54.8182 29.0816 55.1578 29.0285 55.4657 28.9224C55.7841 28.8056 56.0866 28.657 56.3732 28.4766L56.835 29.3364C56.5059 29.5487 56.1291 29.7344 55.7045 29.8936C55.2905 30.0529 54.8182 30.1325 54.2874 30.1325ZM51.8513 25.4514H55.9911C55.9911 24.6659 55.8213 24.0715 55.4816 23.6681C55.1525 23.2541 54.6855 23.0471 54.0804 23.0471C53.5391 23.0471 53.0508 23.2594 52.6156 23.684C52.191 24.098 51.9363 24.6871 51.8513 25.4514ZM60.9324 30.1325C60.4441 30.1325 60.0885 29.9839 59.8656 29.6867C59.6533 29.3788 59.5472 28.9436 59.5472 28.381V18.6049H60.8528V28.4766C60.8528 28.6783 60.89 28.8269 60.9643 28.9224C61.0386 29.0073 61.1235 29.0498 61.219 29.0498C61.2615 29.0498 61.2986 29.0498 61.3305 29.0498C61.3729 29.0392 61.4313 29.0285 61.5056 29.0179L61.6808 30.0051C61.5958 30.0476 61.495 30.0794 61.3782 30.1006C61.2615 30.1219 61.1129 30.1325 60.9324 30.1325Z" fill="#D0F7F4"/>
</svg>
