<svg width="349" height="112" viewBox="0 0 349 112" fill="none" xmlns="http://www.w3.org/2000/svg">
<path d="M1.15634 15V5.88858H2.77244V13.6347H6.5619V15H1.15634ZM9.76756 15.1672C9.17313 15.1672 8.68552 14.9814 8.30471 14.6099C7.9332 14.2384 7.74744 13.7554 7.74744 13.161C7.74744 12.4273 8.06787 11.8607 8.70874 11.4613C9.3496 11.0526 10.3713 10.774 11.7737 10.6254C11.7645 10.2632 11.6669 9.95203 11.4812 9.69197C11.3047 9.42262 10.9843 9.28795 10.5199 9.28795C10.1855 9.28795 9.85579 9.35296 9.53072 9.48299C9.21493 9.61302 8.90378 9.77092 8.59728 9.95667L8.01215 8.88392C8.39295 8.64244 8.82019 8.43346 9.29387 8.25699C9.77685 8.08052 10.2877 7.99228 10.8264 7.99228C11.6809 7.99228 12.3171 8.2477 12.735 8.75854C13.1623 9.26008 13.3759 9.98918 13.3759 10.9458V15H12.0524L11.9409 14.2477H11.8852C11.5787 14.5077 11.249 14.726 10.896 14.9025C10.5524 15.0789 10.1762 15.1672 9.76756 15.1672ZM10.283 13.9133C10.5617 13.9133 10.8124 13.8483 11.0354 13.7183C11.2676 13.579 11.5137 13.3932 11.7737 13.161V11.6285C10.845 11.7492 10.1994 11.9304 9.83722 12.1718C9.47499 12.404 9.29387 12.692 9.29387 13.0356C9.29387 13.3421 9.38675 13.565 9.57251 13.7043C9.75827 13.8437 9.99511 13.9133 10.283 13.9133ZM18.7086 15.1672C18.0584 15.1672 17.4361 14.87 16.8417 14.2755H16.7999L16.6606 15H15.3928V5.16412H16.9949V7.69972L16.9532 8.84213C17.2411 8.59135 17.5569 8.38702 17.9005 8.22913C18.2442 8.07123 18.5878 7.99228 18.9315 7.99228C19.786 7.99228 20.45 8.30807 20.9237 8.93965C21.3974 9.57123 21.6343 10.4118 21.6343 11.4613C21.6343 12.2415 21.4949 12.9102 21.2163 13.4675C20.9377 14.0155 20.5754 14.4381 20.1296 14.7353C19.6931 15.0232 19.2194 15.1672 18.7086 15.1672ZM18.3742 13.8437C18.8293 13.8437 19.2101 13.644 19.5166 13.2446C19.8231 12.8452 19.9764 12.2601 19.9764 11.4892C19.9764 10.8019 19.8603 10.2678 19.6281 9.88701C19.3959 9.50621 19.0197 9.31581 18.4996 9.31581C18.0166 9.31581 17.5151 9.57123 16.9949 10.0821V13.2725C17.2364 13.4768 17.4733 13.6254 17.7055 13.7183C17.947 13.8019 18.1699 13.8437 18.3742 13.8437ZM26.2683 15.1672C25.6367 15.1672 25.0655 15.0279 24.5546 14.7492C24.0438 14.4613 23.6398 14.0526 23.3426 13.5232C23.0454 12.9845 22.8967 12.339 22.8967 11.5867C22.8967 10.8437 23.0454 10.2028 23.3426 9.66411C23.6491 9.12541 24.0438 8.7121 24.5268 8.42417C25.0097 8.13625 25.5159 7.99228 26.0453 7.99228C26.6676 7.99228 27.1878 8.1316 27.6057 8.41024C28.0237 8.67959 28.3395 9.06039 28.5531 9.55265C28.7667 10.0356 28.8735 10.5975 28.8735 11.2384C28.8735 11.5728 28.8503 11.8328 28.8038 12.0186H24.4571C24.5314 12.6223 24.7497 13.0913 25.1119 13.4257C25.4741 13.7601 25.9292 13.9272 26.4772 13.9272C26.7744 13.9272 27.0484 13.8855 27.2992 13.8019C27.5593 13.709 27.8147 13.5836 28.0655 13.4257L28.6088 14.4288C28.2837 14.6424 27.9215 14.8189 27.5221 14.9582C27.1227 15.0975 26.7048 15.1672 26.2683 15.1672ZM24.4432 10.9319H27.4803C27.4803 10.4025 27.3642 9.98918 27.132 9.69197C26.8998 9.38547 26.5515 9.23222 26.0871 9.23222C25.6878 9.23222 25.3302 9.38082 25.0144 9.67804C24.7079 9.96596 24.5175 10.3839 24.4432 10.9319ZM32.0636 15.1672C31.497 15.1672 31.093 14.9954 30.8515 14.6517C30.6193 14.3081 30.5032 13.839 30.5032 13.2446V5.16412H32.1054V13.3282C32.1054 13.5232 32.1425 13.6625 32.2169 13.7461C32.2912 13.8204 32.3701 13.8576 32.4537 13.8576C32.4908 13.8576 32.5234 13.8576 32.5512 13.8576C32.5884 13.8483 32.6395 13.839 32.7045 13.8297L32.9134 15.0279C32.8206 15.065 32.6998 15.0975 32.5512 15.1254C32.4119 15.1533 32.2494 15.1672 32.0636 15.1672ZM39.2519 15V7.2539H36.6188V5.88858H43.5012V7.2539H40.868V15H39.2519ZM46.911 15.1672C46.2794 15.1672 45.7082 15.0279 45.1974 14.7492C44.6866 14.4613 44.2825 14.0526 43.9853 13.5232C43.6881 12.9845 43.5395 12.339 43.5395 11.5867C43.5395 10.8437 43.6881 10.2028 43.9853 9.66411C44.2918 9.12541 44.6866 8.7121 45.1695 8.42417C45.6525 8.13625 46.1587 7.99228 46.6881 7.99228C47.3104 7.99228 47.8305 8.1316 48.2485 8.41024C48.6664 8.67959 48.9822 9.06039 49.1958 9.55265C49.4095 10.0356 49.5163 10.5975 49.5163 11.2384C49.5163 11.5728 49.493 11.8328 49.4466 12.0186H45.0999C45.1742 12.6223 45.3924 13.0913 45.7547 13.4257C46.1169 13.7601 46.572 13.9272 47.12 13.9272C47.4172 13.9272 47.6912 13.8855 47.942 13.8019C48.202 13.709 48.4574 13.5836 48.7082 13.4257L49.2516 14.4288C48.9265 14.6424 48.5643 14.8189 48.1649 14.9582C47.7655 15.0975 47.3475 15.1672 46.911 15.1672ZM45.0859 10.9319H48.1231C48.1231 10.4025 48.007 9.98918 47.7748 9.69197C47.5426 9.38547 47.1943 9.23222 46.7299 9.23222C46.3305 9.23222 45.9729 9.38082 45.6571 9.67804C45.3506 9.96596 45.1602 10.3839 45.0859 10.9319ZM50.1608 15L52.3341 11.4334L50.3001 8.15947H52.0276L52.7939 9.45513C52.896 9.64089 52.9982 9.83593 53.1004 10.0403C53.2118 10.2353 53.3186 10.4257 53.4208 10.6115H53.4765C53.5601 10.4257 53.6484 10.2353 53.7412 10.0403C53.8341 9.83593 53.9223 9.64089 54.0059 9.45513L54.6607 8.15947H56.3186L54.2985 11.6146L56.4719 15H54.7443L53.9084 13.6486C53.797 13.4443 53.6809 13.2399 53.5601 13.0356C53.4487 12.8313 53.3326 12.6316 53.2118 12.4365H53.1561C53.0632 12.6316 52.9657 12.8313 52.8635 13.0356C52.7614 13.2307 52.6592 13.435 52.557 13.6486L51.8326 15H50.1608ZM59.8325 15.1672C59.0431 15.1672 58.4811 14.9396 58.1468 14.4845C57.8217 14.0201 57.6592 13.4211 57.6592 12.6873V9.42726H56.6839V8.22913L57.7427 8.15947L57.9378 6.2926H59.2753V8.15947H61.0167V9.42726H59.2753V12.6873C59.2753 13.4861 59.5957 13.8855 60.2365 13.8855C60.3573 13.8855 60.4827 13.8715 60.6127 13.8437C60.7427 13.8065 60.8542 13.7694 60.9471 13.7322L61.2257 14.9164C61.04 14.9814 60.8263 15.0372 60.5848 15.0836C60.3526 15.1393 60.1019 15.1672 59.8325 15.1672Z" fill="#FFA2A2"/>
<rect x="0.497566" y="28.4585" width="347.301" height="54.8491" rx="11.444" fill="#151729"/>
<rect x="0.497566" y="28.4585" width="347.301" height="54.8491" rx="11.444" stroke="#FFA2A2" stroke-width="0.995131"/>
<path d="M17.3549 61.8828V51.4379H18.6764V61.8828H17.3549ZM21.9077 61.8828V54.1447H22.9904L23.1019 55.2592H23.1496C23.5212 54.8877 23.9139 54.5799 24.3279 54.3357C24.7418 54.081 25.2142 53.9536 25.7449 53.9536C26.5623 53.9536 27.1567 54.2137 27.5282 54.7338C27.9103 55.2433 28.1014 55.9916 28.1014 56.9788V61.8828H26.7958V57.1539C26.7958 56.4321 26.679 55.9067 26.4455 55.5777C26.212 55.2486 25.8405 55.0841 25.331 55.0841C24.9382 55.0841 24.5826 55.1849 24.2642 55.3866C23.9564 55.5883 23.6061 55.8855 23.2133 56.2782V61.8828H21.9077ZM31.1127 65.1468V54.1447H32.1954L32.3068 55.0363H32.3546C32.7049 54.7391 33.087 54.4843 33.501 54.272C33.9256 54.0598 34.3661 53.9536 34.8225 53.9536C35.8203 53.9536 36.5793 54.3145 37.0994 55.0363C37.6195 55.7475 37.8796 56.7028 37.8796 57.9023C37.8796 58.7727 37.7204 59.521 37.4019 60.1473C37.0941 60.7736 36.6854 61.2512 36.1759 61.5803C35.677 61.9093 35.1304 62.0739 34.5359 62.0739C34.175 62.0739 33.8141 61.9943 33.4532 61.835C33.1029 61.6758 32.7474 61.4582 32.3864 61.1822L32.4183 62.5356V65.1468H31.1127ZM34.313 60.9753C34.9499 60.9753 35.4753 60.7046 35.8893 60.1632C36.3139 59.6113 36.5262 58.8576 36.5262 57.9023C36.5262 57.0531 36.367 56.3685 36.0485 55.8483C35.7407 55.3176 35.2206 55.0522 34.4882 55.0522C34.1591 55.0522 33.8247 55.1425 33.4851 55.3229C33.156 55.5034 32.8004 55.7634 32.4183 56.1031V60.1632C32.7686 60.4604 33.1083 60.6727 33.4373 60.8001C33.7664 60.9169 34.0583 60.9753 34.313 60.9753ZM42.703 62.0739C41.8856 62.0739 41.2859 61.8191 40.9038 61.3096C40.5216 60.7895 40.3306 60.0358 40.3306 59.0487V54.1447H41.6521V58.8735C41.6521 59.5953 41.7636 60.1208 41.9865 60.4498C42.22 60.7789 42.5915 60.9434 43.101 60.9434C43.5044 60.9434 43.86 60.8426 44.1678 60.6409C44.4863 60.4286 44.8259 60.0942 45.1868 59.6378V54.1447H46.4924V61.8828H45.4097L45.2983 60.6727H45.2505C44.8896 61.0973 44.5075 61.437 44.1041 61.6917C43.7008 61.9465 43.2337 62.0739 42.703 62.0739ZM52.0364 62.0739C51.2085 62.0739 50.63 61.835 50.3009 61.3574C49.9825 60.8797 49.8233 60.2588 49.8233 59.4945V55.2115H48.6769V54.2243L49.887 54.1447L50.0462 51.9793H51.1448V54.1447H53.2306V55.2115H51.1448V59.5104C51.1448 59.9881 51.2297 60.3596 51.3996 60.625C51.58 60.8797 51.8931 61.0071 52.339 61.0071C52.477 61.0071 52.6256 60.9859 52.7848 60.9434C52.944 60.8903 53.0873 60.8426 53.2147 60.8001L53.4694 61.7873C53.2571 61.8616 53.0236 61.9253 52.7689 61.9783C52.5247 62.042 52.2806 62.0739 52.0364 62.0739ZM61.4557 61.8828V52.5525H58.3032V51.4379H65.9458V52.5525H62.7932V61.8828H61.4557ZM70.2762 62.0739C69.5862 62.0739 68.96 61.9147 68.3974 61.5962C67.8348 61.2672 67.389 60.8001 67.0599 60.1951C66.7309 59.59 66.5664 58.8682 66.5664 58.0297C66.5664 57.1805 66.7309 56.4534 67.0599 55.8483C67.3996 55.2433 67.8348 54.7762 68.3656 54.4472C68.8963 54.1181 69.4536 53.9536 70.0374 53.9536C71.0245 53.9536 71.7835 54.2827 72.3142 54.9408C72.8556 55.5989 73.1263 56.4799 73.1263 57.5838C73.1263 57.7218 73.121 57.8598 73.1103 57.9978C73.1103 58.1252 73.0997 58.2367 73.0785 58.3322H67.856C67.9091 59.1495 68.1639 59.8023 68.6203 60.2906C69.0874 60.7789 69.6924 61.023 70.4354 61.023C70.8069 61.023 71.1466 60.9699 71.4544 60.8638C71.7729 60.747 72.0754 60.5984 72.362 60.418L72.8237 61.2778C72.4947 61.4901 72.1179 61.6758 71.6933 61.835C71.2793 61.9943 70.8069 62.0739 70.2762 62.0739ZM67.8401 57.3928H71.9799C71.9799 56.6073 71.81 56.0129 71.4704 55.6095C71.1413 55.1955 70.6743 54.9885 70.0692 54.9885C69.5279 54.9885 69.0396 55.2008 68.6044 55.6254C68.1798 56.0394 67.925 56.6285 67.8401 57.3928ZM74.3444 61.8828L76.876 57.8386L74.5355 54.1447H75.9526L76.9875 55.8483C77.1043 56.05 77.2263 56.2623 77.3537 56.4852C77.4811 56.7081 77.6138 56.9257 77.7518 57.138H77.8154C77.9322 56.9257 78.049 56.7081 78.1657 56.4852C78.2825 56.2623 78.3993 56.05 78.516 55.8483L79.4554 54.1447H80.8247L78.4842 57.9819L80.9999 61.8828H79.5828L78.4523 60.0836C78.3143 59.8501 78.1763 59.6166 78.0384 59.383C77.9004 59.1495 77.7571 58.9213 77.6085 58.6984H77.5448C77.4068 58.9213 77.2741 59.1495 77.1467 59.383C77.0193 59.606 76.892 59.8395 76.7646 60.0836L75.7137 61.8828H74.3444ZM85.0779 62.0739C84.25 62.0739 83.6715 61.835 83.3424 61.3574C83.024 60.8797 82.8647 60.2588 82.8647 59.4945V55.2115H81.7184V54.2243L82.9284 54.1447L83.0877 51.9793H84.1863V54.1447H86.2721V55.2115H84.1863V59.5104C84.1863 59.9881 84.2712 60.3596 84.441 60.625C84.6215 60.8797 84.9346 61.0071 85.3804 61.0071C85.5184 61.0071 85.667 60.9859 85.8263 60.9434C85.9855 60.8903 86.1288 60.8426 86.2561 60.8001L86.5109 61.7873C86.2986 61.8616 86.0651 61.9253 85.8103 61.9783C85.5662 62.042 85.3221 62.0739 85.0779 62.0739Z" fill="#FFA2A2"/>
<g clip-path="url(#clip0_2004_13952)">
<path d="M324.47 46.2383C322.551 46.2383 320.675 46.8073 319.08 47.8735C317.484 48.9396 316.241 50.4549 315.506 52.2278C314.772 54.0007 314.58 55.9516 314.954 57.8337C315.328 59.7158 316.252 61.4446 317.609 62.8015C318.966 64.1585 320.695 65.0825 322.577 65.4569C324.459 65.8313 326.41 65.6391 328.183 64.9048C329.956 64.1704 331.471 62.9268 332.537 61.3312C333.604 59.7357 334.173 57.8598 334.173 55.9408C334.17 53.3684 333.147 50.9021 331.328 49.0831C329.509 47.2641 327.043 46.241 324.47 46.2383ZM323.724 51.4627C323.724 51.2648 323.802 51.0749 323.942 50.935C324.082 50.795 324.272 50.7164 324.47 50.7164C324.668 50.7164 324.858 50.795 324.998 50.935C325.138 51.0749 325.216 51.2648 325.216 51.4627V56.6872C325.216 56.8851 325.138 57.0749 324.998 57.2149C324.858 57.3549 324.668 57.4335 324.47 57.4335C324.272 57.4335 324.082 57.3549 323.942 57.2149C323.802 57.0749 323.724 56.8851 323.724 56.6872V51.4627ZM324.47 61.1653C324.249 61.1653 324.032 61.0996 323.848 60.9766C323.664 60.8536 323.521 60.6787 323.436 60.4742C323.351 60.2696 323.329 60.0445 323.372 59.8273C323.415 59.6102 323.522 59.4107 323.678 59.2541C323.835 59.0975 324.035 58.9909 324.252 58.9477C324.469 58.9045 324.694 58.9267 324.899 59.0114C325.103 59.0962 325.278 59.2397 325.401 59.4238C325.524 59.6079 325.59 59.8243 325.59 60.0457C325.59 60.3426 325.472 60.6274 325.262 60.8374C325.052 61.0473 324.767 61.1653 324.47 61.1653Z" fill="#F9F9FA"/>
</g>
<path d="M3.78946 106.933C3.1486 106.933 2.55417 106.812 2.00619 106.571C1.4582 106.32 0.984517 105.99 0.585137 105.581L1.28173 104.773C1.60681 105.117 1.98761 105.396 2.42414 105.609C2.86996 105.814 3.32971 105.916 3.80339 105.916C4.40711 105.916 4.87614 105.781 5.21051 105.512C5.54487 105.233 5.71205 104.871 5.71205 104.425C5.71205 104.109 5.6424 103.859 5.50308 103.673C5.37305 103.487 5.19193 103.329 4.95974 103.199C4.73683 103.069 4.48141 102.939 4.19348 102.809L2.88389 102.238C2.59597 102.117 2.30804 101.959 2.02012 101.764C1.74148 101.569 1.50464 101.318 1.30959 101.012C1.12384 100.705 1.03096 100.329 1.03096 99.8833C1.03096 99.4189 1.1517 99.0056 1.39318 98.6434C1.64396 98.2718 1.98761 97.9839 2.42414 97.7796C2.86067 97.566 3.35293 97.4592 3.90092 97.4592C4.4489 97.4592 4.95509 97.566 5.41949 97.7796C5.88388 97.9839 6.27862 98.2533 6.60369 98.5876L5.97676 99.34C5.69812 99.0706 5.38698 98.8616 5.04333 98.713C4.70896 98.5551 4.32816 98.4762 3.90092 98.4762C3.39008 98.4762 2.97677 98.5969 2.66098 98.8384C2.35448 99.0799 2.20123 99.405 2.20123 99.8136C2.20123 100.102 2.27553 100.343 2.42414 100.538C2.58203 100.724 2.77708 100.877 3.00928 100.998C3.24147 101.119 3.47832 101.23 3.7198 101.332L5.01546 101.889C5.3684 102.038 5.68419 102.219 5.96283 102.433C6.25075 102.637 6.47831 102.893 6.64549 103.199C6.81267 103.496 6.89626 103.872 6.89626 104.328C6.89626 104.811 6.77087 105.252 6.5201 105.651C6.26933 106.041 5.91174 106.352 5.44735 106.585C4.98296 106.817 4.43033 106.933 3.78946 106.933ZM10.8116 106.933C10.0965 106.933 9.57169 106.71 9.23732 106.264C8.90296 105.809 8.73578 105.15 8.73578 104.286V99.9948H9.89212V104.133C9.89212 104.764 9.98964 105.224 10.1847 105.512C10.389 105.8 10.7141 105.944 11.1599 105.944C11.5129 105.944 11.824 105.855 12.0934 105.679C12.372 105.493 12.6692 105.201 12.985 104.801V99.9948H14.1274V106.766H13.18L13.0825 105.707H13.0407C12.7249 106.078 12.3906 106.376 12.0376 106.598C11.6847 106.821 11.276 106.933 10.8116 106.933ZM16.6602 109.622V99.9948H17.6076L17.7051 100.775H17.7469C18.0534 100.515 18.3878 100.292 18.75 100.106C19.1215 99.9204 19.507 99.8276 19.9064 99.8276C20.7794 99.8276 21.4435 100.143 21.8986 100.775C22.3537 101.397 22.5813 102.233 22.5813 103.283C22.5813 104.044 22.442 104.699 22.1633 105.247C21.894 105.795 21.5364 106.213 21.0906 106.501C20.654 106.789 20.1757 106.933 19.6556 106.933C19.3398 106.933 19.024 106.863 18.7082 106.724C18.4017 106.585 18.0906 106.394 17.7748 106.153L17.8027 107.337V109.622H16.6602ZM19.4605 105.972C20.0178 105.972 20.4776 105.735 20.8398 105.261C21.2113 104.778 21.3971 104.119 21.3971 103.283C21.3971 102.54 21.2577 101.941 20.9791 101.485C20.7098 101.021 20.2547 100.789 19.6138 100.789C19.3259 100.789 19.0333 100.868 18.7361 101.026C18.4482 101.184 18.137 101.411 17.8027 101.708V105.261C18.1092 105.521 18.4064 105.707 18.6943 105.818C18.9822 105.92 19.2376 105.972 19.4605 105.972ZM24.6368 109.622V99.9948H25.5842L25.6817 100.775H25.7235C26.03 100.515 26.3644 100.292 26.7266 100.106C27.0981 99.9204 27.4836 99.8276 27.883 99.8276C28.756 99.8276 29.4201 100.143 29.8752 100.775C30.3303 101.397 30.5579 102.233 30.5579 103.283C30.5579 104.044 30.4186 104.699 30.1399 105.247C29.8706 105.795 29.513 106.213 29.0672 106.501C28.6306 106.789 28.1523 106.933 27.6322 106.933C27.3164 106.933 27.0006 106.863 26.6848 106.724C26.3783 106.585 26.0672 106.394 25.7514 106.153L25.7793 107.337V109.622H24.6368ZM27.4371 105.972C27.9944 105.972 28.4542 105.735 28.8164 105.261C29.1879 104.778 29.3737 104.119 29.3737 103.283C29.3737 102.54 29.2343 101.941 28.9557 101.485C28.6864 101.021 28.2313 100.789 27.5904 100.789C27.3025 100.789 27.0099 100.868 26.7127 101.026C26.4248 101.184 26.1136 101.411 25.7793 101.708V105.261C26.0858 105.521 26.383 105.707 26.6709 105.818C26.9588 105.92 27.2142 105.972 27.4371 105.972ZM35.2466 106.933C34.6986 106.933 34.1831 106.793 33.7001 106.515C33.2264 106.236 32.841 105.832 32.5438 105.303C32.2559 104.773 32.1119 104.137 32.1119 103.394C32.1119 102.633 32.2559 101.987 32.5438 101.458C32.841 100.928 33.2264 100.524 33.7001 100.246C34.1831 99.9669 34.6986 99.8276 35.2466 99.8276C35.8038 99.8276 36.3193 99.9669 36.793 100.246C37.2667 100.524 37.6475 100.928 37.9354 101.458C38.2326 101.987 38.3812 102.633 38.3812 103.394C38.3812 104.137 38.2326 104.773 37.9354 105.303C37.6475 105.832 37.2667 106.236 36.793 106.515C36.3193 106.793 35.8038 106.933 35.2466 106.933ZM35.2466 105.985C35.8317 105.985 36.3007 105.749 36.6537 105.275C37.0159 104.792 37.197 104.165 37.197 103.394C37.197 102.614 37.0159 101.982 36.6537 101.499C36.3007 101.016 35.8317 100.775 35.2466 100.775C34.6707 100.775 34.2017 101.016 33.8394 101.499C33.4772 101.982 33.2961 102.614 33.2961 103.394C33.2961 104.165 33.4772 104.792 33.8394 105.275C34.2017 105.749 34.6707 105.985 35.2466 105.985ZM40.4132 106.766V99.9948H41.3605L41.4581 101.221H41.4999C41.7321 100.794 42.0153 100.455 42.3497 100.204C42.6841 99.953 43.0416 99.8276 43.4225 99.8276C43.6918 99.8276 43.9333 99.874 44.1469 99.9669L43.924 100.97C43.8125 100.933 43.7104 100.905 43.6175 100.886C43.5246 100.868 43.4085 100.859 43.2692 100.859C42.9813 100.859 42.6794 100.975 42.3636 101.207C42.0571 101.439 41.7878 101.843 41.5556 102.419V106.766H40.4132ZM47.6234 106.933C46.899 106.933 46.3928 106.724 46.1048 106.306C45.8262 105.888 45.6869 105.345 45.6869 104.676V100.928H44.6838V100.064L45.7426 99.9948L45.8819 98.1H46.8432V99.9948H48.6683V100.928H46.8432V104.69C46.8432 105.108 46.9175 105.433 47.0661 105.665C47.224 105.888 47.498 105.999 47.8881 105.999C48.0089 105.999 48.1389 105.981 48.2782 105.944C48.4175 105.897 48.5429 105.855 48.6544 105.818L48.8773 106.682C48.6915 106.747 48.4872 106.803 48.2643 106.849C48.0507 106.905 47.837 106.933 47.6234 106.933ZM50.4481 106.766V99.9948H51.5905V106.766H50.4481ZM51.0332 98.6016C50.8103 98.6016 50.6245 98.5366 50.4759 98.4065C50.3366 98.2672 50.2669 98.0814 50.2669 97.8492C50.2669 97.6263 50.3366 97.4452 50.4759 97.3059C50.6245 97.1666 50.8103 97.0969 51.0332 97.0969C51.2561 97.0969 51.4372 97.1666 51.5765 97.3059C51.7251 97.4452 51.7995 97.6263 51.7995 97.8492C51.7995 98.0814 51.7251 98.2672 51.5765 98.4065C51.4372 98.5366 51.2561 98.6016 51.0332 98.6016ZM54.1254 106.766V99.9948H55.0728L55.1703 100.97H55.2121C55.5371 100.645 55.8808 100.376 56.243 100.162C56.6053 99.939 57.0186 99.8276 57.483 99.8276C58.1981 99.8276 58.7182 100.055 59.0433 100.51C59.3777 100.956 59.5449 101.611 59.5449 102.475V106.766H58.4025V102.628C58.4025 101.996 58.3003 101.537 58.096 101.249C57.8916 100.961 57.5666 100.817 57.1207 100.817C56.7771 100.817 56.4659 100.905 56.1873 101.081C55.9179 101.258 55.6114 101.518 55.2678 101.862V106.766H54.1254ZM64.278 109.886C63.4513 109.886 62.778 109.728 62.2578 109.413C61.7377 109.097 61.4777 108.646 61.4777 108.061C61.4777 107.773 61.5659 107.495 61.7424 107.225C61.9188 106.965 62.1603 106.733 62.4668 106.529V106.473C62.2996 106.371 62.1557 106.227 62.0349 106.041C61.9235 105.855 61.8678 105.633 61.8678 105.372C61.8678 105.085 61.9467 104.834 62.1046 104.62C62.2625 104.407 62.4297 104.239 62.6061 104.119V104.063C62.3832 103.877 62.1789 103.626 61.9931 103.311C61.8167 102.995 61.7284 102.637 61.7284 102.238C61.7284 101.746 61.8445 101.318 62.0767 100.956C62.3089 100.594 62.6201 100.315 63.0102 100.12C63.4003 99.9251 63.8229 99.8276 64.278 99.8276C64.4637 99.8276 64.6402 99.8461 64.8074 99.8833C64.9746 99.9112 65.1185 99.9483 65.2393 99.9948H67.5937V100.872H66.2006C66.3585 101.021 66.4885 101.221 66.5906 101.472C66.7021 101.713 66.7578 101.978 66.7578 102.266C66.7578 102.749 66.6464 103.167 66.4235 103.52C66.2006 103.872 65.9033 104.146 65.5318 104.341C65.1603 104.527 64.7424 104.62 64.278 104.62C63.9157 104.62 63.5767 104.541 63.2609 104.383C63.1402 104.485 63.038 104.602 62.9544 104.732C62.8708 104.852 62.8291 105.006 62.8291 105.191C62.8291 105.405 62.9126 105.581 63.0798 105.721C63.2563 105.86 63.5721 105.93 64.0272 105.93H65.3368C66.1263 105.93 66.716 106.06 67.1061 106.32C67.5055 106.571 67.7052 106.979 67.7052 107.546C67.7052 107.964 67.5659 108.349 67.2872 108.702C67.0086 109.055 66.6139 109.338 66.103 109.552C65.5922 109.775 64.9838 109.886 64.278 109.886ZM64.278 103.854C64.6681 103.854 65.0024 103.71 65.2811 103.422C65.569 103.125 65.7129 102.73 65.7129 102.238C65.7129 101.746 65.5736 101.36 65.295 101.081C65.0164 100.803 64.6773 100.663 64.278 100.663C63.8786 100.663 63.5396 100.803 63.2609 101.081C62.9823 101.36 62.843 101.746 62.843 102.238C62.843 102.73 62.9823 103.125 63.2609 103.422C63.5489 103.71 63.8879 103.854 64.278 103.854ZM64.4451 109.092C65.0953 109.092 65.6154 108.948 66.0055 108.66C66.3956 108.382 66.5906 108.066 66.5906 107.713C66.5906 107.397 66.4699 107.179 66.2284 107.058C65.9962 106.937 65.6619 106.877 65.2253 106.877H64.0551C63.925 106.877 63.7811 106.868 63.6232 106.849C63.4746 106.831 63.326 106.803 63.1773 106.766C62.9359 106.942 62.7594 107.128 62.6479 107.323C62.5365 107.518 62.4808 107.713 62.4808 107.908C62.4808 108.27 62.6526 108.558 62.9962 108.772C63.3492 108.985 63.8321 109.092 64.4451 109.092ZM74.3063 106.766V98.6016H71.5478V97.6263H78.2351V98.6016H75.4766V106.766H74.3063ZM81.8377 106.933C81.2339 106.933 80.686 106.793 80.1937 106.515C79.7014 106.227 79.3113 105.818 79.0234 105.289C78.7355 104.759 78.5915 104.128 78.5915 103.394C78.5915 102.651 78.7355 102.015 79.0234 101.485C79.3206 100.956 79.7014 100.547 80.1658 100.259C80.6302 99.9715 81.1178 99.8276 81.6287 99.8276C82.4924 99.8276 83.1565 100.115 83.6209 100.691C84.0946 101.267 84.3315 102.038 84.3315 103.004C84.3315 103.125 84.3268 103.246 84.3175 103.366C84.3175 103.478 84.3082 103.575 84.2897 103.659H79.72C79.7665 104.374 79.9894 104.945 80.3887 105.372C80.7974 105.8 81.3268 106.013 81.977 106.013C82.302 106.013 82.5993 105.967 82.8686 105.874C83.1472 105.772 83.4119 105.642 83.6627 105.484L84.0667 106.236C83.7788 106.422 83.4491 106.585 83.0776 106.724C82.7154 106.863 82.302 106.933 81.8377 106.933ZM79.7061 102.837H83.3284C83.3284 102.15 83.1798 101.629 82.8825 101.276C82.5946 100.914 82.1859 100.733 81.6565 100.733C81.1829 100.733 80.7556 100.919 80.3748 101.29C80.0033 101.653 79.7804 102.168 79.7061 102.837ZM85.2108 106.766L87.4259 103.227L85.3779 99.9948H86.6179L87.5234 101.485C87.6256 101.662 87.7324 101.848 87.8439 102.043C87.9553 102.238 88.0714 102.428 88.1922 102.614H88.2479C88.3501 102.428 88.4522 102.238 88.5544 102.043C88.6566 101.848 88.7587 101.662 88.8609 101.485L89.6829 99.9948H90.881L88.833 103.352L91.0343 106.766H89.7943L88.8052 105.191C88.6844 104.987 88.5637 104.783 88.4429 104.578C88.3222 104.374 88.1968 104.174 88.0668 103.979H88.0111C87.8903 104.174 87.7742 104.374 87.6628 104.578C87.5513 104.773 87.4398 104.978 87.3284 105.191L86.4089 106.766H85.2108ZM94.416 106.933C93.6915 106.933 93.1853 106.724 92.8974 106.306C92.6188 105.888 92.4794 105.345 92.4794 104.676V100.928H91.4764V100.064L92.5352 99.9948L92.6745 98.1H93.6358V99.9948H95.4609V100.928H93.6358V104.69C93.6358 105.108 93.7101 105.433 93.8587 105.665C94.0166 105.888 94.2906 105.999 94.6807 105.999C94.8014 105.999 94.9315 105.981 95.0708 105.944C95.2101 105.897 95.3355 105.855 95.4469 105.818L95.6698 106.682C95.4841 106.747 95.2797 106.803 95.0568 106.849C94.8432 106.905 94.6296 106.933 94.416 106.933Z" fill="#FFA2A2"/>
<defs>
<clipPath id="clip0_2004_13952">
<rect width="23.8832" height="23.8832" fill="white" transform="translate(312.471 43.9414)"/>
</clipPath>
</defs>
</svg>
