<svg width="400" height="400" viewBox="0 0 400 400" fill="none" xmlns="http://www.w3.org/2000/svg">
<rect width="400" height="400" fill="#DCEED6"/>
<path d="M106.269 104.467L118.619 129.497C119.162 130.592 120.206 131.348 121.411 131.526L149.03 135.541C152.077 135.982 153.291 139.725 151.084 141.872L131.095 161.351C130.221 162.2 129.822 163.431 130.026 164.636L134.745 192.145C135.263 195.175 132.08 197.492 129.364 196.057L104.656 183.071C103.578 182.503 102.28 182.503 101.202 183.071L76.4945 196.057C73.7699 197.492 70.587 195.175 71.1132 192.145L75.8324 164.636C76.0361 163.431 75.6372 162.2 74.763 161.351L54.7745 141.872C52.5678 139.725 53.79 135.982 56.8286 135.541L84.4474 131.526C85.6526 131.348 86.705 130.592 87.2397 129.497L99.5893 104.467C100.947 101.709 104.886 101.709 106.244 104.467H106.269Z" fill="#E6F6F7" stroke="#323232" stroke-width="0.848763" stroke-miterlimit="10"/>
<path d="M256.195 277.114H42.7562C39.0249 277.114 36 280.139 36 283.871V283.879C36 287.61 39.0249 290.635 42.7562 290.635H256.195C259.926 290.635 262.951 287.61 262.951 283.879V283.871C262.951 280.139 259.926 277.114 256.195 277.114Z" fill="#FDF3D9" stroke="black" stroke-width="2.54629" stroke-miterlimit="10"/>
<path d="M113.229 277.114H108.332V290.635H113.229V277.114Z" fill="#F6C343" stroke="#323232" stroke-width="2.54629" stroke-miterlimit="10"/>
<path d="M151.61 277.114H146.712V290.635H151.61V277.114Z" fill="#F6C343" stroke="#323232" stroke-width="2.54629" stroke-miterlimit="10"/>
<path d="M189.991 277.114H185.094V290.635H189.991V277.114Z" fill="#F6C343" stroke="#323232" stroke-width="2.54629" stroke-miterlimit="10"/>
<path d="M228.372 277.114H223.475V290.635H228.372V277.114Z" fill="#F6C343" stroke="#323232" stroke-width="2.54629" stroke-miterlimit="10"/>
<path d="M288.151 300.286H74.7122C70.9809 300.286 67.9561 303.31 67.9561 307.042V307.05C67.9561 310.781 70.9809 313.806 74.7122 313.806H288.151C291.882 313.806 294.907 310.781 294.907 307.05V307.042C294.907 303.31 291.882 300.286 288.151 300.286Z" fill="#FDF3D9" stroke="black" stroke-width="2.54629" stroke-miterlimit="10"/>
<path d="M106.804 300.286H101.906V313.806H106.804V300.286Z" fill="#F6C343" stroke="#323232" stroke-width="2.54629" stroke-miterlimit="10"/>
<path d="M145.185 300.286H140.288V313.806H145.185V300.286Z" fill="#F6C343" stroke="#323232" stroke-width="2.54629" stroke-miterlimit="10"/>
<path d="M183.566 300.286H178.669V313.806H183.566V300.286Z" fill="#F6C343" stroke="#323232" stroke-width="2.54629" stroke-miterlimit="10"/>
<path d="M221.947 300.286H217.05V313.806H221.947V300.286Z" fill="#F6C343" stroke="#323232" stroke-width="2.54629" stroke-miterlimit="10"/>
<path d="M260.32 300.286H255.422V313.806H260.32V300.286Z" fill="#F6C343" stroke="#323232" stroke-width="2.54629" stroke-miterlimit="10"/>
<path d="M304.277 314.121H90.8386C87.1073 314.121 84.0825 317.145 84.0825 320.877V320.885C84.0825 324.617 87.1073 327.641 90.8386 327.641H304.277C308.009 327.641 311.033 324.617 311.033 320.885V320.877C311.033 317.145 308.009 314.121 304.277 314.121Z" fill="#FDF3D9" stroke="black" stroke-width="2.54629" stroke-miterlimit="10"/>
<path d="M122.93 314.121H118.033V327.641H122.93V314.121Z" fill="#F6C343" stroke="#323232" stroke-width="2.54629" stroke-miterlimit="10"/>
<path d="M161.311 314.121H156.414V327.641H161.311V314.121Z" fill="#F6C343" stroke="#323232" stroke-width="2.54629" stroke-miterlimit="10"/>
<path d="M199.693 314.121H194.795V327.641H199.693V314.121Z" fill="#F6C343" stroke="#323232" stroke-width="2.54629" stroke-miterlimit="10"/>
<path d="M238.074 314.121H233.176V327.641H238.074V314.121Z" fill="#F6C343" stroke="#323232" stroke-width="2.54629" stroke-miterlimit="10"/>
<path d="M276.446 314.121H271.549V327.641H276.446V314.121Z" fill="#F6C343" stroke="#323232" stroke-width="2.54629" stroke-miterlimit="10"/>
<path d="M322.899 326.25H109.461C105.729 326.25 102.705 329.274 102.705 333.006V333.014C102.705 336.745 105.729 339.77 109.461 339.77H322.899C326.631 339.77 329.655 336.745 329.655 333.014V333.006C329.655 329.274 326.631 326.25 322.899 326.25Z" fill="#FDF3D9" stroke="black" stroke-width="2.54629" stroke-miterlimit="10"/>
<path d="M141.552 326.25H136.655V339.77H141.552V326.25Z" fill="#F6C343" stroke="#323232" stroke-width="2.54629" stroke-miterlimit="10"/>
<path d="M179.934 326.25H175.036V339.77H179.934V326.25Z" fill="#F6C343" stroke="#323232" stroke-width="2.54629" stroke-miterlimit="10"/>
<path d="M218.314 326.25H213.417V339.77H218.314V326.25Z" fill="#F6C343" stroke="#323232" stroke-width="2.54629" stroke-miterlimit="10"/>
<path d="M256.695 326.25H251.798V339.77H256.695V326.25Z" fill="#F6C343" stroke="#323232" stroke-width="2.54629" stroke-miterlimit="10"/>
<path d="M295.077 326.25H290.179V339.77H295.077V326.25Z" fill="#F6C343" stroke="#323232" stroke-width="2.54629" stroke-miterlimit="10"/>
<path d="M357.724 343.479H144.286C140.554 343.479 137.529 346.504 137.529 350.235V350.244C137.529 353.975 140.554 357 144.286 357H357.724C361.455 357 364.48 353.975 364.48 350.244V350.235C364.48 346.504 361.455 343.479 357.724 343.479Z" fill="#FDF3D9" stroke="black" stroke-width="2.54629" stroke-miterlimit="10"/>
<path d="M176.377 343.479H171.479V357H176.377V343.479Z" fill="#F6C343" stroke="#323232" stroke-width="2.54629" stroke-miterlimit="10"/>
<path d="M214.758 343.479H209.861V357H214.758V343.479Z" fill="#F6C343" stroke="#323232" stroke-width="2.54629" stroke-miterlimit="10"/>
<path d="M253.139 343.479H248.242V357H253.139V343.479Z" fill="#F6C343" stroke="#323232" stroke-width="2.54629" stroke-miterlimit="10"/>
<path d="M291.52 343.479H286.623V357H291.52V343.479Z" fill="#F6C343" stroke="#323232" stroke-width="2.54629" stroke-miterlimit="10"/>
<path d="M329.901 343.479H325.004V357H329.901V343.479Z" fill="#F6C343" stroke="#323232" stroke-width="2.54629" stroke-miterlimit="10"/>
<path d="M237.488 125.415C237.488 104.323 220.385 87.2207 199.293 87.2207C220.385 87.2207 237.488 70.1181 237.488 49.0263C237.488 70.1181 254.59 87.2207 275.682 87.2207C254.59 87.2207 237.488 104.323 237.488 125.415Z" fill="#C3A6D9" stroke="#323232" stroke-width="0.848763" stroke-miterlimit="10"/>
<path d="M72.3949 85.4382C72.3949 73.7167 62.8972 64.2191 51.1758 64.2191C62.8972 64.2191 72.3949 54.7214 72.3949 43C72.3949 54.7214 81.8925 64.2191 93.6139 64.2191C81.8925 64.2191 72.3949 73.7167 72.3949 85.4382Z" fill="#F6C343" stroke="#323232" stroke-width="0.848763" stroke-miterlimit="10"/>
<path d="M316.126 155.529C316.126 143.808 306.628 134.31 294.907 134.31C306.628 134.31 316.126 124.812 316.126 113.091C316.126 124.812 325.623 134.31 337.345 134.31C325.623 134.31 316.126 143.808 316.126 155.529Z" fill="#81D0D5" stroke="#323232" stroke-width="0.848763" stroke-miterlimit="10"/>
</svg>
